# xmcd
#
# Track frame offsets:
#  150
#  21317
#  42391
#  60329
#  78559
#  99408
#  118494
#  145086
#  158471
#  180088
#  196027
#  214721
#  241456
#
# Disc length: 3358 seconds
#
# Revision: 0
# Processed by: cddbd v1.5.1PL2 Copyright (c) Steve Scherf et al.
# Submitted via: Collectorz.com_Music_Collector 6.11
#
DISCID=a40d1c0d
DTITLE=Hammond Jr., John - Wicked Grin
DYEAR=2001
DGENRE=Blues
TTITLE0=2:19
TTITLE1=Heartattack And Vine
TTITLE2=Clap Hands
TTITLE3='Til The Money Runs Out
TTITLE4=16 Shells From A Thirty-Ought Six
TTITLE5=Buzz Fledderjohn
TTITLE6=Get Behind The Mule
TTITLE7=Shore Leave
TTITLE8=Fannin Street
TTITLE9=Jockey Full Of Bourbon
TTITLE10=Big Black Mariah
TTITLE11=Murder In The Red Barn
TTITLE12=I Know I've Been Changed
EXTD=
EXTT0=
EXTT1=
EXTT2=
EXTT3=
EXTT4=
EXTT5=
EXTT6=
EXTT7=
EXTT8=
EXTT9=
EXTT10=
EXTT11=
EXTT12=
PLAYORDER=
